<svg width="66" height="66" viewBox="0 0 66 66" fill="none" xmlns="http://www.w3.org/2000/svg">
<g filter="url(#filter0_ii_2_1827)">
<circle cx="33" cy="33" r="33" fill="url(#paint0_linear_2_1827)"/>
</g>
<path d="M21.125 21.25C20.8929 21.25 20.6704 21.3422 20.5063 21.5063C20.3422 21.6704 20.25 21.8929 20.25 22.125V29.125C20.25 29.3571 20.3422 29.5796 20.5063 29.7437C20.6704 29.9078 20.8929 30 21.125 30C21.3571 30 21.5796 29.9078 21.7437 29.7437C21.9078 29.5796 22 29.3571 22 29.125V24.2372L27.5055 29.7445C27.6698 29.9088 27.8926 30.0011 28.125 30.0011C28.3574 30.0011 28.5802 29.9088 28.7445 29.7445C28.9088 29.5802 29.0011 29.3574 29.0011 29.125C29.0011 28.8926 28.9088 28.6698 28.7445 28.5055L23.2372 23H28.125C28.3571 23 28.5796 22.9078 28.7437 22.7437C28.9078 22.5796 29 22.3571 29 22.125C29 21.8929 28.9078 21.6704 28.7437 21.5063C28.5796 21.3422 28.3571 21.25 28.125 21.25H21.125ZM21.125 45.75C20.8929 45.75 20.6704 45.6578 20.5063 45.4937C20.3422 45.3296 20.25 45.1071 20.25 44.875V37.875C20.25 37.6429 20.3422 37.4204 20.5063 37.2563C20.6704 37.0922 20.8929 37 21.125 37C21.3571 37 21.5796 37.0922 21.7437 37.2563C21.9078 37.4204 22 37.6429 22 37.875V42.7628L27.5055 37.2555C27.6698 37.0912 27.8926 36.9989 28.125 36.9989C28.3574 36.9989 28.5802 37.0912 28.7445 37.2555C28.9088 37.4198 29.0011 37.6426 29.0011 37.875C29.0011 38.1074 28.9088 38.3302 28.7445 38.4945L23.2372 44H28.125C28.3571 44 28.5796 44.0922 28.7437 44.2563C28.9078 44.4204 29 44.6429 29 44.875C29 45.1071 28.9078 45.3296 28.7437 45.4937C28.5796 45.6578 28.3571 45.75 28.125 45.75H21.125ZM44.75 22.125C44.75 21.8929 44.6578 21.6704 44.4937 21.5063C44.3296 21.3422 44.1071 21.25 43.875 21.25H36.875C36.6429 21.25 36.4204 21.3422 36.2563 21.5063C36.0922 21.6704 36 21.8929 36 22.125C36 22.3571 36.0922 22.5796 36.2563 22.7437C36.4204 22.9078 36.6429 23 36.875 23H41.7628L36.2555 28.5055C36.0912 28.6698 35.9989 28.8926 35.9989 29.125C35.9989 29.3574 36.0912 29.5802 36.2555 29.7445C36.4198 29.9088 36.6426 30.0011 36.875 30.0011C37.1074 30.0011 37.3302 29.9088 37.4945 29.7445L43 24.2372V29.125C43 29.3571 43.0922 29.5796 43.2563 29.7437C43.4204 29.9078 43.6429 30 43.875 30C44.1071 30 44.3296 29.9078 44.4937 29.7437C44.6578 29.5796 44.75 29.3571 44.75 29.125V22.125ZM43.875 45.75C44.1071 45.75 44.3296 45.6578 44.4937 45.4937C44.6578 45.3296 44.75 45.1071 44.75 44.875V37.875C44.75 37.6429 44.6578 37.4204 44.4937 37.2563C44.3296 37.0922 44.1071 37 43.875 37C43.6429 37 43.4204 37.0922 43.2563 37.2563C43.0922 37.4204 43 37.6429 43 37.875V42.7628L37.4945 37.2555C37.3302 37.0912 37.1074 36.9989 36.875 36.9989C36.6426 36.9989 36.4198 37.0912 36.2555 37.2555C36.0912 37.4198 35.9989 37.6426 35.9989 37.875C35.9989 38.1074 36.0912 38.3302 36.2555 38.4945L41.7628 44H36.875C36.6429 44 36.4204 44.0922 36.2563 44.2563C36.0922 44.4204 36 44.6429 36 44.875C36 45.1071 36.0922 45.3296 36.2563 45.4937C36.4204 45.6578 36.6429 45.75 36.875 45.75H43.875Z" fill="#000847"/>
<defs>
<filter id="filter0_ii_2_1827" x="0" y="-4" width="66" height="74" filterUnits="userSpaceOnUse" color-interpolation-filters="sRGB">
<feFlood flood-opacity="0" result="BackgroundImageFix"/>
<feBlend mode="normal" in="SourceGraphic" in2="BackgroundImageFix" result="shape"/>
<feColorMatrix in="SourceAlpha" type="matrix" values="0 0 0 0 0 0 0 0 0 0 0 0 0 0 0 0 0 0 127 0" result="hardAlpha"/>
<feOffset dy="4"/>
<feGaussianBlur stdDeviation="4"/>
<feComposite in2="hardAlpha" operator="arithmetic" k2="-1" k3="1"/>
<feColorMatrix type="matrix" values="0 0 0 0 0.954186 0 0 0 0 0.954186 0 0 0 0 0.954186 0 0 0 0.25 0"/>
<feBlend mode="normal" in2="shape" result="effect1_innerShadow_2_1827"/>
<feColorMatrix in="SourceAlpha" type="matrix" values="0 0 0 0 0 0 0 0 0 0 0 0 0 0 0 0 0 0 127 0" result="hardAlpha"/>
<feOffset dy="-4"/>
<feGaussianBlur stdDeviation="4"/>
<feComposite in2="hardAlpha" operator="arithmetic" k2="-1" k3="1"/>
<feColorMatrix type="matrix" values="0 0 0 0 0.666635 0 0 0 0 0.654488 0 0 0 0 0.654488 0 0 0 0.25 0"/>
<feBlend mode="normal" in2="effect1_innerShadow_2_1827" result="effect2_innerShadow_2_1827"/>
</filter>
<linearGradient id="paint0_linear_2_1827" x1="33" y1="0" x2="33" y2="66" gradientUnits="userSpaceOnUse">
<stop stop-color="#F4F4F4"/>
<stop offset="1" stop-color="white" stop-opacity="0"/>
</linearGradient>
</defs>
</svg>
