<svg width="30" height="30" viewBox="0 0 30 30" fill="none" xmlns="http://www.w3.org/2000/svg">
<circle cx="15" cy="15" r="14.5" stroke="#1A73E8"/>
<rect width="17" height="20" transform="translate(7 4)" fill="white"/>
<g clip-path="url(#clip0_2_1473)">
<path d="M16.25 22.9675H20.25C20.4063 22.9675 20.53 22.8333 20.53 22.6719V18.4219C20.53 18.2604 20.4063 18.1263 20.25 18.1263H16.25C16.0937 18.1263 15.97 18.2604 15.97 18.4219V22.6719C15.97 22.8333 16.0937 22.9675 16.25 22.9675ZM19.97 18.7175V22.3762H16.53V18.7175H19.97Z" fill="#1A73E8" stroke="#1A73E8" stroke-width="0.06"/>
<path d="M8.25 22.9675H12.25C12.4063 22.9675 12.53 22.8333 12.53 22.6719V18.4219C12.53 18.2604 12.4063 18.1263 12.25 18.1263H8.25C8.09374 18.1263 7.97 18.2604 7.97 18.4219V22.6719C7.97 22.8333 8.09374 22.9675 8.25 22.9675ZM11.97 18.7175V22.3762H8.53V18.7175H11.97Z" fill="#1A73E8" stroke="#1A73E8" stroke-width="0.06"/>
<path d="M16.0512 9.71325L16.051 9.71337C15.9993 9.76897 15.97 9.84379 15.97 9.92188V14.1719C15.97 14.3333 16.0937 14.4675 16.25 14.4675H20.25C20.3251 14.4675 20.3963 14.4357 20.4487 14.3806L20.4488 14.3805L21.9488 12.7867L21.949 12.7866C22.0007 12.731 22.03 12.6562 22.03 12.5781V8.32812C22.03 8.16667 21.9063 8.0325 21.75 8.0325H17.75C17.6749 8.0325 17.6037 8.06431 17.5513 8.11938L17.5512 8.1195L16.0512 9.71325ZM21.47 12.4563L20.1335 13.8762H16.53V10.0437L17.8665 8.62375H21.47V12.4563Z" fill="#1A73E8" stroke="#1A73E8" stroke-width="0.06"/>
<path d="M16.25 14.4675H20.25C20.4063 14.4675 20.53 14.3333 20.53 14.1719V9.92188C20.53 9.76042 20.4063 9.62625 20.25 9.62625H16.25C16.0937 9.62625 15.97 9.76042 15.97 9.92188V14.1719C15.97 14.3333 16.0937 14.4675 16.25 14.4675ZM19.97 10.2175V13.8762H16.53V10.2175H19.97Z" fill="#1A73E8" stroke="#1A73E8" stroke-width="0.06"/>
<path d="M8.25 14.4675H12.25C12.4063 14.4675 12.53 14.3333 12.53 14.1719V9.92188C12.53 9.76042 12.4063 9.62625 12.25 9.62625H8.25C8.09374 9.62625 7.97 9.76042 7.97 9.92188V14.1719C7.97 14.3333 8.09374 14.4675 8.25 14.4675ZM11.97 10.2175V13.8762H8.53V10.2175H11.97Z" fill="#1A73E8" stroke="#1A73E8" stroke-width="0.06"/>
<path d="M20.0512 18.6305L20.0513 18.6306C20.1059 18.6881 20.1778 18.7175 20.25 18.7175C20.3222 18.7175 20.3941 18.6881 20.4483 18.6305L21.6983 17.3024C21.8067 17.1873 21.8067 17.0008 21.6983 16.8857C21.589 16.7695 21.4105 16.7695 21.3012 16.8857L20.0512 18.2138C19.9428 18.329 19.9428 18.5154 20.0512 18.6305Z" fill="#1A73E8" stroke="#1A73E8" stroke-width="0.06"/>
<path d="M12.0512 18.6305L12.0513 18.6306C12.1059 18.6881 12.1778 18.7175 12.25 18.7175C12.3222 18.7175 12.3941 18.6881 12.4483 18.6305L13.6983 17.3024C13.8067 17.1873 13.8067 17.0008 13.6983 16.8857C13.589 16.7695 13.4105 16.7695 13.3012 16.8857L12.0512 18.2138C11.9428 18.329 11.9428 18.5154 12.0512 18.6305Z" fill="#1A73E8" stroke="#1A73E8" stroke-width="0.06"/>
<path d="M20.0512 10.1305L20.0513 10.1306C20.1059 10.1881 20.1778 10.2175 20.25 10.2175C20.3222 10.2175 20.3941 10.1881 20.4483 10.1305L21.6983 8.8024C21.8067 8.68726 21.8067 8.50083 21.6983 8.38569C21.589 8.26951 21.4105 8.26951 21.3012 8.38569L20.0512 9.71381C19.9428 9.82896 19.9428 10.0154 20.0512 10.1305Z" fill="#1A73E8" stroke="#1A73E8" stroke-width="0.06"/>
<path d="M12.0512 10.1305L12.0513 10.1306C12.1059 10.1881 12.1778 10.2175 12.25 10.2175C12.3222 10.2175 12.3941 10.1881 12.4483 10.1305L13.6983 8.8024C13.8067 8.68726 13.8067 8.50083 13.6983 8.38569C13.589 8.26951 13.4105 8.26951 13.3012 8.38569L12.0512 9.71381C11.9428 9.82896 11.9428 10.0154 12.0512 10.1305Z" fill="#1A73E8" stroke="#1A73E8" stroke-width="0.06"/>
<path d="M13.25 20.3112H16C16.1563 20.3112 16.28 20.1771 16.28 20.0156C16.28 19.8542 16.1563 19.72 16 19.72H13.25C13.0937 19.72 12.97 19.8542 12.97 20.0156C12.97 20.1771 13.0937 20.3112 13.25 20.3112Z" fill="#1A73E8" stroke="#1A73E8" stroke-width="0.06"/>
<path d="M13.25 11.8112H16C16.1563 11.8112 16.28 11.6771 16.28 11.5156C16.28 11.3542 16.1563 11.22 16 11.22H13.25C13.0937 11.22 12.97 11.3542 12.97 11.5156C12.97 11.6771 13.0937 11.8112 13.25 11.8112Z" fill="#1A73E8" stroke="#1A73E8" stroke-width="0.06"/>
<path d="M17.9483 17.0362C18.0567 16.9211 18.0567 16.7347 17.9483 16.6195C17.839 16.5033 17.6605 16.5033 17.5512 16.6195L16.0512 18.2133L16.051 18.2134L17.9265 17.0157M17.9483 17.0362L17.9265 17.0157M17.9483 17.0362L17.9483 17.0362L17.9265 17.0157M17.9483 17.0362L16.53 18.5437M17.9265 17.0157L16.5 18.5319M16.53 18.5437V18.5319H16.5M16.53 18.5437L16.5218 18.5524L16.5 18.5319M16.53 18.5437L16.5 18.5319M16.5 22.3763V22.4063H16.53V22.3763H16.5ZM20.1335 22.3763L20.1247 22.3857L20.1465 22.4063V22.3763H20.1335ZM21.5 17.1238V17.0938H21.47V17.1238H21.5ZM21.4782 20.9476L21.47 20.9563V20.9682H21.5L21.4782 20.9476Z" fill="#1A73E8" stroke="#1A73E8" stroke-width="0.06"/>
<path d="M18.47 17.3594C18.47 17.5208 18.5937 17.655 18.75 17.655C18.9063 17.655 19.03 17.5208 19.03 17.3594V14.4375C19.03 14.276 18.9063 14.1419 18.75 14.1419C18.5937 14.1419 18.47 14.276 18.47 14.4375V17.3594Z" fill="#1A73E8" stroke="#1A73E8" stroke-width="0.06"/>
<path d="M10.47 17.3594C10.47 17.5208 10.5937 17.655 10.75 17.655C10.9063 17.655 11.03 17.5208 11.03 17.3594V14.4375C11.03 14.276 10.9063 14.1419 10.75 14.1419C10.5937 14.1419 10.47 14.276 10.47 14.4375V17.3594Z" fill="#1A73E8" stroke="#1A73E8" stroke-width="0.06"/>
<path d="M8.05115 9.71325L8.05104 9.71337C7.99927 9.76897 7.97 9.84379 7.97 9.92188V14.1719C7.97 14.3333 8.09374 14.4675 8.25 14.4675H12.25C12.3251 14.4675 12.3964 14.4357 12.4488 14.38L13.9488 12.7862C14.0572 12.6711 14.0572 12.4846 13.9488 12.3695C13.8395 12.2533 13.661 12.2533 13.5517 12.3695L12.1335 13.8762H8.53V10.0437L9.86646 8.62375H13.47V10.4531C13.47 10.6146 13.5937 10.7487 13.75 10.7487C13.9063 10.7487 14.03 10.6146 14.03 10.4531V8.32812C14.03 8.16667 13.9063 8.0325 13.75 8.0325H9.75C9.6749 8.0325 9.60365 8.06431 9.55126 8.11938L9.55115 8.1195L8.05115 9.71325Z" fill="#1A73E8" stroke="#1A73E8" stroke-width="0.06"/>
<path d="M8.05104 18.2134L8.05115 18.2133L9.55115 16.6195C9.6605 16.5033 9.839 16.5033 9.94835 16.6195C10.0567 16.7347 10.0567 16.9211 9.94835 17.0362M8.05104 18.2134L9.9265 17.0157M8.05104 18.2134C7.99927 18.269 7.97 18.3438 7.97 18.4219V22.6719C7.97 22.8333 8.09374 22.9675 8.25 22.9675H12.25C12.3251 22.9675 12.3964 22.9357 12.4488 22.88L13.9488 21.2862C14.0572 21.1711 14.0572 20.9847 13.9488 20.8695C13.8395 20.7533 13.661 20.7533 13.5517 20.8695L12.1335 22.3763L8.05104 18.2134ZM9.94835 17.0362L9.9265 17.0157M9.94835 17.0362L9.94835 17.0362L9.9265 17.0157M9.94835 17.0362L8.53 18.5437M9.9265 17.0157L8.5 18.5319M8.53 18.5437V18.5319H8.5M8.53 18.5437L8.52185 18.5524L8.5 18.5319M8.53 18.5437L8.5 18.5319M8.5 22.3763V22.4063H8.53V22.3763H8.5Z" fill="#1A73E8" stroke="#1A73E8" stroke-width="0.06"/>
<path d="M13.47 17.1237V18.9531C13.47 19.1146 13.5937 19.2487 13.75 19.2487C13.9063 19.2487 14.03 19.1146 14.03 18.9531V16.8281C14.03 16.6667 13.9063 16.5325 13.75 16.5325H11.75C11.5937 16.5325 11.47 16.6667 11.47 16.8281C11.47 16.9896 11.5937 17.1237 11.75 17.1237H13.47Z" fill="#1A73E8" stroke="#1A73E8" stroke-width="0.06"/>
</g>
<defs>
<clipPath id="clip0_2_1473">
<rect width="16" height="17" fill="white" transform="translate(7 7)"/>
</clipPath>
</defs>
</svg>
